<svg width="10" height="10" viewBox="0 0 10 10" fill="none" xmlns="http://www.w3.org/2000/svg">
<path d="M9.22 0.86H7.2V0.09C7.2 0.04 7.16 0 7.11 0H6.44C6.38 0 6.34 0.04 6.34 0.09V0.86H3.27V0.09C3.27 0.04 3.23 0 3.17 0H2.5C2.45 0 2.4 0.04 2.4 0.09V0.86H0.39C0.18 0.86 0 1.03 0 1.24V9.21C0 9.42 0.18 9.6 0.39 9.6H9.22C9.43 9.6 9.6 9.42 9.6 9.21V1.24C9.6 1.03 9.43 0.86 9.22 0.86ZM8.74 8.73H0.87V4.17H8.74V8.73ZM0.87 3.36V1.72H2.4V2.3C2.4 2.35 2.45 2.4 2.5 2.4H3.17C3.23 2.4 3.27 2.35 3.27 2.3V1.72H6.34V2.3C6.34 2.35 6.38 2.4 6.44 2.4H7.11C7.16 2.4 7.2 2.35 7.2 2.3V1.72H8.74V3.36H0.87Z" fill="#131313"/>
</svg>
