<svg width="44.000000" height="44.000000" viewBox="0 0 44 44" fill="none" xmlns="http://www.w3.org/2000/svg" xmlns:xlink="http://www.w3.org/1999/xlink">
	<desc>
			Created with Pixso.
	</desc>
	<defs/>
	<path id="Vector" d="M22.01 24.29L19.74 24.29L19.74 21.19L22.01 21.19C22.41 21.15 22.81 21.29 23.13 21.59C23.42 21.88 23.58 22.3 23.56 22.74C23.58 23.17 23.42 23.59 23.13 23.89C22.83 24.18 22.43 24.32 22.01 24.29ZM19.74 17.02L21.89 17.02C22.43 16.97 22.95 17.23 23.23 17.7C23.51 18.19 23.51 18.8 23.23 19.27C22.95 19.74 22.43 20.02 21.89 19.95L19.74 19.95L19.74 17.02ZM23.74 20.79L23.2 20.52L23.74 20.26C24.4 19.9 24.82 19.18 24.82 18.4C24.82 16.76 23.79 15.79 22.06 15.79L18.38 15.79L18.38 25.53L22.22 25.53C23.93 25.53 24.96 24.51 24.96 22.84C24.99 21.95 24.51 21.13 23.74 20.79ZM12.8 24.18L12.8 17.13L14.09 17.13L14.09 22.95L17.07 22.95L17.07 24.17L12.8 24.17L12.8 24.18ZM29.04 24.18C28.4 24.22 27.77 23.99 27.3 23.52C26.83 23.05 26.56 22.41 26.58 21.74L26.58 17.14L27.89 17.14L27.89 21.67C27.85 22.13 28.08 22.56 28.45 22.79C28.81 23.03 29.29 23.03 29.65 22.79C30.02 22.55 30.24 22.13 30.21 21.67L30.21 17.13L31.5 17.13L31.5 21.73C31.5 22.41 31.24 23.05 30.79 23.5C30.31 23.97 29.69 24.22 29.04 24.18ZM21.99 8.4C17.07 8.4 12.64 11.43 10.76 16.06C8.87 20.7 9.92 26.05 13.39 29.6C16.86 33.16 22.1 34.22 26.63 32.3C31.17 30.39 34.14 25.86 34.14 20.82C34.14 13.97 28.69 8.4 21.99 8.4ZM21.99 32.74C17.28 32.74 13.03 29.85 11.23 25.39C9.43 20.93 10.43 15.8 13.76 12.41C17.09 8.99 22.1 7.98 26.46 9.83C30.8 11.67 33.65 16.01 33.65 20.84C33.63 27.39 28.41 32.72 21.99 32.74ZM21.99 7.61C16.76 7.61 12.05 10.84 10.04 15.77C8.04 20.7 9.15 26.4 12.83 30.18C16.53 33.96 22.08 35.09 26.91 33.05C31.75 31.01 34.89 26.19 34.89 20.84C34.9 13.54 29.13 7.61 21.99 7.61ZM21.99 35.27C16.29 35.27 11.13 31.75 8.94 26.34C6.76 20.94 7.97 14.74 12 10.61C16.03 6.48 22.12 5.24 27.38 7.47C32.65 9.7 36.11 14.98 36.09 20.82C36.09 28.8 29.77 35.25 21.99 35.27ZM29.49 0.17C26.91 -0.44 23.77 0.71 23.77 0.71C23.21 0.92 22.62 1.03 22.01 1.03C21.4 1.04 20.79 0.96 20.21 0.75C20.21 0.75 17.06 -0.44 14.49 0.21C14.49 0.21 11.96 0.7 12.56 4.04C12.56 4.04 12.7 1.45 15.9 1.45C15.9 1.45 17.11 1.39 19.64 2.58C19.87 2.7 20.11 2.8 20.35 2.89C20.51 2.94 20.68 3 20.89 3.03L21.07 3.07C21.14 3.08 21.23 3.1 21.3 3.1C21.77 3.17 22.24 3.17 22.69 3.1L22.92 3.01L23.13 2.96L23.21 2.96C23.34 2.93 23.46 2.89 23.58 2.84C23.83 2.75 24.07 2.65 24.31 2.53C26.83 1.36 28.05 1.39 28.05 1.39C31.26 1.39 31.4 3.99 31.4 3.99C32.02 0.68 29.48 0.17 29.49 0.17ZM0.01 21.62C0.36 18.92 2.56 16.31 2.56 16.31C2.96 15.84 3.27 15.31 3.48 14.72C3.69 14.15 3.8 13.54 3.82 12.91C3.82 12.91 3.82 9.44 5.3 7.2C5.3 7.2 6.64 4.95 9.52 6.72C9.52 6.72 7.06 5.91 5.93 9.01C5.93 9.01 5.46 10.12 5.65 13C5.68 13.26 5.7 13.54 5.68 13.82C5.68 14.01 5.66 14.2 5.65 14.37C5.65 14.44 5.65 14.5 5.61 14.55L5.56 14.79C5.46 15.26 5.28 15.72 5.05 16.13C5.02 16.2 4.98 16.26 4.95 16.33L4.83 16.52C4.81 16.53 4.79 16.57 4.78 16.59C4.71 16.69 4.62 16.8 4.53 16.9C4.36 17.09 4.18 17.28 3.99 17.46C2.02 19.5 1.62 20.66 1.62 20.66C0.48 23.75 2.86 24.83 2.86 24.83C-0.41 24.22 0.01 21.62 0.01 21.62ZM43.99 21.64C43.64 18.94 41.43 16.33 41.43 16.33C41.04 15.86 40.73 15.33 40.52 14.74C40.29 14.16 40.19 13.56 40.19 12.93C40.19 12.93 40.19 9.46 38.71 7.2C38.71 7.2 37.36 4.95 34.47 6.72C34.47 6.72 36.94 5.91 38.08 9.01C38.08 9.01 38.55 10.14 38.36 13.01C38.32 13.28 38.3 13.56 38.3 13.83C38.3 14.01 38.3 14.2 38.36 14.39L38.36 14.57C38.36 14.62 38.39 14.72 38.41 14.81C38.51 15.28 38.69 15.73 38.91 16.15L39.02 16.34L39.14 16.53L39.19 16.6C39.26 16.71 39.35 16.83 39.44 16.92C39.61 17.11 39.79 17.3 39.98 17.48C41.97 19.48 42.35 20.66 42.35 20.66C43.5 23.77 41.11 24.85 41.11 24.85C44.43 24.22 43.97 21.61 43.97 21.61L43.99 21.64ZM3.62 33.26C5.46 35.27 8.79 36.05 8.79 36.05C9.97 36.35 11.02 37.06 11.75 38.05C11.75 38.05 13.76 40.88 16.27 41.82C16.27 41.82 18.68 42.85 20.02 39.66C20.02 39.66 18.45 41.82 15.75 39.97C15.75 39.97 14.7 39.33 13.22 36.87C13.1 36.62 12.94 36.4 12.78 36.17C12.68 36.01 12.56 35.88 12.42 35.74L12.29 35.61L12.12 35.46C11.77 35.13 11.37 34.86 10.95 34.66L10.76 34.57L10.55 34.48L10.46 34.45C10.34 34.39 10.22 34.36 10.1 34.34C9.83 34.27 9.57 34.24 9.29 34.22C6.54 33.78 5.53 33.05 5.53 33.05C2.8 31.21 4.15 28.91 4.15 28.91C1.77 31.4 3.64 33.26 3.62 33.26ZM40.33 33.26C38.5 35.27 35.18 36.05 35.18 36.05C34 36.35 32.93 37.04 32.2 38.05C32.2 38.05 30.21 40.88 27.7 41.82C27.7 41.82 25.29 42.85 23.95 39.66C23.95 39.66 25.52 41.82 28.22 39.97C28.22 39.97 29.27 39.33 30.73 36.87C30.86 36.62 31.01 36.4 31.17 36.17C31.27 36.03 31.4 35.88 31.54 35.74C31.57 35.68 31.62 35.65 31.66 35.61L31.83 35.46C32.18 35.14 32.58 34.86 33.02 34.66L33.21 34.57L33.42 34.48L33.51 34.45C33.73 34.36 33.87 34.34 33.87 34.34C34.14 34.27 34.41 34.24 34.68 34.2C37.43 33.77 38.44 33.04 38.44 33.04C41.15 31.19 39.82 28.89 39.82 28.89C42.19 31.4 40.33 33.26 40.33 33.26ZM22.15 44L23.3 36.28L22.15 36.28L21 36.28L22.15 44ZM43.66 27.88L36.84 24.18L36.47 25.37L36.11 26.55L43.66 27.88ZM0.31 27.88L7.13 24.18L7.5 25.37L7.86 26.55L0.31 27.88ZM35.44 1.67L31.8 8.73L30.82 8L29.84 7.26L35.44 1.67ZM8.53 1.67L12.17 8.73L13.15 8L14.13 7.26L8.53 1.67Z" fill="#131313" fill-opacity="1.000000" fill-rule="nonzero"/>
</svg>
